<svg xmlns="http://www.w3.org/2000/svg" viewBox="0 0 16 16" id="Send-Plane-Fill--Streamline-Mingcute-Fill" height="16" width="16"><desc>Send Plane Fill Streamline Icon: https://streamlinehq.com</desc><g fill="none" fill-rule="nonzero"><path d="M16 0v16H0V0h16ZM8.395333333333333 15.505333333333333l-0.007333333333333332 0.0013333333333333333 -0.047333333333333324 0.023333333333333334 -0.013333333333333332 0.0026666666666666666 -0.009333333333333332 -0.0026666666666666666 -0.047333333333333324 -0.023333333333333334c-0.006666666666666666 -0.0026666666666666666 -0.012666666666666666 -0.0006666666666666666 -0.016 0.003333333333333333l-0.0026666666666666666 0.006666666666666666 -0.011333333333333334 0.2853333333333333 0.003333333333333333 0.013333333333333332 0.006666666666666666 0.008666666666666666 0.06933333333333333 0.049333333333333326 0.009999999999999998 0.0026666666666666666 0.008 -0.0026666666666666666 0.06933333333333333 -0.049333333333333326 0.008 -0.010666666666666666 0.0026666666666666666 -0.011333333333333334 -0.011333333333333334 -0.2846666666666666c-0.0013333333333333333 -0.006666666666666666 -0.005999999999999999 -0.011333333333333334 -0.011333333333333334 -0.011999999999999999Zm0.17666666666666667 -0.07533333333333334 -0.008666666666666666 0.0013333333333333333 -0.12333333333333332 0.062 -0.006666666666666666 0.006666666666666666 -0.002 0.007333333333333332 0.011999999999999999 0.2866666666666666 0.003333333333333333 0.008 0.005333333333333333 0.004666666666666666 0.134 0.062c0.008 0.0026666666666666666 0.015333333333333332 0 0.019333333333333334 -0.005333333333333333l0.0026666666666666666 -0.009333333333333332 -0.02266666666666667 -0.4093333333333333c-0.002 -0.008 -0.006666666666666666 -0.013333333333333332 -0.013333333333333332 -0.014666666666666665Zm-0.4766666666666666 0.0013333333333333333a0.015333333333333332 0.015333333333333332 0 0 0 -0.018 0.004l-0.004 0.009333333333333332 -0.02266666666666667 0.4093333333333333c0 0.008 0.004666666666666666 0.013333333333333332 0.011333333333333334 0.016l0.009999999999999998 -0.0013333333333333333 0.134 -0.062 0.006666666666666666 -0.005333333333333333 0.0026666666666666666 -0.007333333333333332 0.011333333333333334 -0.2866666666666666 -0.002 -0.008 -0.006666666666666666 -0.006666666666666666 -0.12266666666666666 -0.06133333333333333Z" stroke-width="0.6667"></path><path fill="#000000" d="m14.288666666666666 3.2406666666666664 -4 10.333333333333332a0.6666666666666666 0.6666666666666666 0 0 1 -1.0826666666666667 0.24133333333333332l-2.2546666666666666 -2.1566666666666663 -1.3826666666666665 1.382a0.3333333333333333 0.3333333333333333 0 0 1 -0.5686666666666667 -0.236v-3.0126666666666666L1.5393333333333334 6.482a0.6666666666666666 0.6666666666666666 0 0 1 0.29466666666666663 -1.1273333333333333l11.666666666666666 -3a0.6666666666666666 0.6666666666666666 0 0 1 0.7873333333333333 0.8859999999999999ZM12.666666666666666 4.000666666666667 5.354666666666667 8.767999999999999l1.1566666666666667 1.1066666666666665L12.666666666666666 4Z" stroke-width="0.6667"></path></g></svg>